<svg xmlns="http://www.w3.org/2000/svg" width="920" height="1075" viewBox="0 0 920 1075" role="img" aria-labelledby="title desc">
  <title id="title">LoopRelay engineering usefulness</title>
  <desc id="desc">Baseline and LoopRelay matched-pair engineering outcomes and costs.</desc>
  <rect width="920" height="1075" rx="12" fill="#fbfaf6"/>
  <text x="36" y="42" font-family="system-ui,sans-serif" font-size="22" font-weight="700" fill="#171816">LoopRelay engineering usefulness</text>
  <text x="36" y="70" font-family="system-ui,sans-serif" font-size="13" fill="#64665f">30 matched pairs · 5 task types · causal claim: false</text>
  <rect x="704" y="25" width="180" height="30" rx="15" fill="#dadece"/>
  <text x="794" y="45" text-anchor="middle" font-family="system-ui,sans-serif" font-size="11" font-weight="700" fill="#154f48">DIRECTIONAL EVIDENCE</text>
  <rect x="36" y="92" width="12" height="12" rx="2" fill="#8a887f"/><text x="56" y="103" font-family="system-ui,sans-serif" font-size="12" fill="#64665f">Baseline</text>
  <rect x="126" y="92" width="12" height="12" rx="2" fill="#1f6f64"/><text x="146" y="103" font-family="system-ui,sans-serif" font-size="12" fill="#64665f">LoopRelay</text>
  <text x="36" y="162" font-family="system-ui,sans-serif" font-size="13" font-weight="600" fill="#171816">Success rate</text>
  <rect x="250" y="150" width="288.00011520004614" height="18" rx="3" fill="#8a887f"/>
  <text x="548.0001152000461" y="164" font-family="ui-monospace,monospace" font-size="11" fill="#171816">60%</text>
  <rect x="250" y="175" width="400" height="18" rx="3" fill="#1f6f64"/>
  <text x="660" y="189" font-family="ui-monospace,monospace" font-size="11" fill="#171816">83.3%</text>
  <text x="36" y="232" font-family="system-ui,sans-serif" font-size="13" font-weight="600" fill="#171816">Actionability</text>
  <rect x="250" y="220" width="330.11140144557567" height="18" rx="3" fill="#8a887f"/>
  <text x="590.1114014455757" y="234" font-family="ui-monospace,monospace" font-size="11" fill="#171816">74%</text>
  <rect x="250" y="245" width="400" height="18" rx="3" fill="#1f6f64"/>
  <text x="660" y="259" font-family="ui-monospace,monospace" font-size="11" fill="#171816">89.7%</text>
  <text x="36" y="302" font-family="system-ui,sans-serif" font-size="13" font-weight="600" fill="#171816">Friction-free</text>
  <rect x="250" y="290" width="382.6083553876717" height="18" rx="3" fill="#8a887f"/>
  <text x="642.6083553876717" y="304" font-family="ui-monospace,monospace" font-size="11" fill="#171816">73.3%</text>
  <rect x="250" y="315" width="400" height="18" rx="3" fill="#1f6f64"/>
  <text x="660" y="329" font-family="ui-monospace,monospace" font-size="11" fill="#171816">76.7%</text>
  <text x="36" y="372" font-family="system-ui,sans-serif" font-size="13" font-weight="600" fill="#171816">Elapsed time</text>
  <rect x="250" y="360" width="391.52622352743174" height="18" rx="3" fill="#8a887f"/>
  <text x="651.5262235274317" y="374" font-family="ui-monospace,monospace" font-size="11" fill="#171816">30.8s</text>
  <rect x="250" y="385" width="400" height="18" rx="3" fill="#1f6f64"/>
  <text x="660" y="399" font-family="ui-monospace,monospace" font-size="11" fill="#171816">31.5s</text>
  <text x="36" y="442" font-family="system-ui,sans-serif" font-size="13" font-weight="600" fill="#171816">Tool calls</text>
  <rect x="250" y="430" width="400" height="18" rx="3" fill="#8a887f"/>
  <text x="660" y="444" font-family="ui-monospace,monospace" font-size="11" fill="#171816">5.7</text>
  <rect x="250" y="455" width="381.28652631578944" height="18" rx="3" fill="#1f6f64"/>
  <text x="641.2865263157894" y="469" font-family="ui-monospace,monospace" font-size="11" fill="#171816">5.4</text>
  <text x="36" y="512" font-family="system-ui,sans-serif" font-size="13" font-weight="600" fill="#171816">Input tokens</text>
  <rect x="250" y="500" width="360.10733597485716" height="18" rx="3" fill="#8a887f"/>
  <text x="620.1073359748572" y="514" font-family="ui-monospace,monospace" font-size="11" fill="#171816">81.5k</text>
  <rect x="250" y="525" width="400" height="18" rx="3" fill="#1f6f64"/>
  <text x="660" y="539" font-family="ui-monospace,monospace" font-size="11" fill="#171816">90.5k</text>
  <text x="36" y="582" font-family="system-ui,sans-serif" font-size="13" font-weight="600" fill="#171816">Cached tokens (66.7% known)</text>
  <rect x="250" y="570" width="400" height="18" rx="3" fill="#8a887f"/>
  <text x="660" y="584" font-family="ui-monospace,monospace" font-size="11" fill="#171816">69k</text>
  <rect x="250" y="595" width="398.1077822094426" height="18" rx="3" fill="#1f6f64"/>
  <text x="658.1077822094426" y="609" font-family="ui-monospace,monospace" font-size="11" fill="#171816">68.7k</text>
  <text x="36" y="652" font-family="system-ui,sans-serif" font-size="13" font-weight="600" fill="#171816">TTFV (66.7% known)</text>
  <rect x="250" y="640" width="379.812518201937" height="18" rx="3" fill="#8a887f"/>
  <text x="639.812518201937" y="654" font-family="ui-monospace,monospace" font-size="11" fill="#171816">32.1s</text>
  <rect x="250" y="665" width="400" height="18" rx="3" fill="#1f6f64"/>
  <text x="660" y="679" font-family="ui-monospace,monospace" font-size="11" fill="#171816">33.8s</text>
  <line x1="36" y1="710" x2="884" y2="710" stroke="#d8d4ca"/>
  <text x="36" y="738" font-family="system-ui,sans-serif" font-size="14" font-weight="700" fill="#171816">Success rate by task type</text>
  <text x="36" y="775" font-family="system-ui,sans-serif" font-size="12" font-weight="600" fill="#171816">Ambiguity clarification</text>
  <text x="36" y="789" font-family="system-ui,sans-serif" font-size="9" font-weight="700" fill="#64665f">NARROW · N=6</text>
  <rect x="250" y="765" width="174.99993" height="16" rx="3" fill="#8a887f"/>
  <text x="470" y="778" font-family="ui-monospace,monospace" font-size="11" fill="#171816">83.3%</text>
  <rect x="530" y="765" width="105" height="16" rx="3" fill="#1f6f64"/>
  <text x="750" y="778" font-family="ui-monospace,monospace" font-size="11" fill="#171816">50%</text>
  <text x="884" y="778" text-anchor="end" font-family="ui-monospace,monospace" font-size="11" font-weight="700" fill="#b42318">-33.3pp</text>
  <text x="36" y="821" font-family="system-ui,sans-serif" font-size="12" font-weight="600" fill="#171816">Failure prevention</text>
  <text x="36" y="835" font-family="system-ui,sans-serif" font-size="9" font-weight="700" fill="#64665f">RETAIN · N=6</text>
  <rect x="250" y="811" width="0" height="16" rx="3" fill="#8a887f"/>
  <text x="470" y="824" font-family="ui-monospace,monospace" font-size="11" fill="#171816">0%</text>
  <rect x="530" y="811" width="210" height="16" rx="3" fill="#1f6f64"/>
  <text x="750" y="824" font-family="ui-monospace,monospace" font-size="11" fill="#171816">100%</text>
  <text x="884" y="824" text-anchor="end" font-family="ui-monospace,monospace" font-size="11" font-weight="700" fill="#154f48">+100pp</text>
  <text x="36" y="867" font-family="system-ui,sans-serif" font-size="12" font-weight="600" fill="#171816">Implementation continuation</text>
  <text x="36" y="881" font-family="system-ui,sans-serif" font-size="9" font-weight="700" fill="#64665f">NARROW · N=6</text>
  <rect x="250" y="857" width="210" height="16" rx="3" fill="#8a887f"/>
  <text x="470" y="870" font-family="ui-monospace,monospace" font-size="11" fill="#171816">100%</text>
  <rect x="530" y="857" width="174.99993" height="16" rx="3" fill="#1f6f64"/>
  <text x="750" y="870" font-family="ui-monospace,monospace" font-size="11" fill="#171816">83.3%</text>
  <text x="884" y="870" text-anchor="end" font-family="ui-monospace,monospace" font-size="11" font-weight="700" fill="#b42318">-16.7pp</text>
  <text x="36" y="913" font-family="system-ui,sans-serif" font-size="12" font-weight="600" fill="#171816">Release verification continuity</text>
  <text x="36" y="927" font-family="system-ui,sans-serif" font-size="9" font-weight="700" fill="#64665f">NARROW · N=6</text>
  <rect x="250" y="903" width="210" height="16" rx="3" fill="#8a887f"/>
  <text x="470" y="916" font-family="ui-monospace,monospace" font-size="11" fill="#171816">100%</text>
  <rect x="530" y="903" width="210" height="16" rx="3" fill="#1f6f64"/>
  <text x="750" y="916" font-family="ui-monospace,monospace" font-size="11" fill="#171816">100%</text>
  <text x="884" y="916" text-anchor="end" font-family="ui-monospace,monospace" font-size="11" font-weight="700" fill="#64665f">0pp</text>
  <text x="36" y="959" font-family="system-ui,sans-serif" font-size="12" font-weight="600" fill="#171816">Session recovery</text>
  <text x="36" y="973" font-family="system-ui,sans-serif" font-size="9" font-weight="700" fill="#64665f">RETAIN · N=6</text>
  <rect x="250" y="949" width="35.00007000000001" height="16" rx="3" fill="#8a887f"/>
  <text x="470" y="962" font-family="ui-monospace,monospace" font-size="11" fill="#171816">16.7%</text>
  <rect x="530" y="949" width="174.99993" height="16" rx="3" fill="#1f6f64"/>
  <text x="750" y="962" font-family="ui-monospace,monospace" font-size="11" fill="#171816">83.3%</text>
  <text x="884" y="962" text-anchor="end" font-family="ui-monospace,monospace" font-size="11" font-weight="700" fill="#154f48">+66.7pp</text>
  <line x1="36" y1="1025" x2="884" y2="1025" stroke="#d8d4ca"/>
  <text x="36" y="1050" font-family="system-ui,sans-serif" font-size="12" fill="#64665f">Higher is better for success, actionability, and friction-free. Lower is better for time, calls, and tokens.</text>
  <text x="884" y="1050" text-anchor="end" font-family="system-ui,sans-serif" font-size="12" fill="#64665f">target N=30 · types=5 · N/type=5</text>
</svg>
